<svg width="76" height="75" viewBox="0 0 76 75" fill="none" xmlns="http://www.w3.org/2000/svg">
<path d="M52.5259 74.1227H24.3902C18.1615 74.1056 12.1943 71.6819 7.79923 67.3837C3.40414 63.0856 0.940457 57.2645 0.949242 51.1988V23.703C0.940457 17.6373 3.40414 11.8161 7.79923 7.518C12.1943 3.21985 18.1615 0.796109 24.3902 0.779053H52.5259C55.6129 0.783278 58.6689 1.37957 61.5192 2.5339C64.3696 3.68822 66.9585 5.37796 69.1383 7.50664C71.318 9.63532 73.0459 12.1613 74.2233 14.9402C75.4006 17.7192 76.0043 20.6968 76 23.703V51.1988C76.0043 54.2049 75.4006 57.1825 74.2233 59.9615C73.0459 62.7405 71.318 65.2664 69.1383 67.3951C66.9585 69.5238 64.3696 71.2135 61.5192 72.3678C58.6689 73.5221 55.6129 74.1184 52.5259 74.1227ZM69.0569 23.703C69.0569 19.4334 67.3153 15.3388 64.2151 12.3198C61.115 9.30077 56.9102 7.60471 52.5259 7.60471H24.3902C22.2193 7.60471 20.0697 8.0211 18.0641 8.83011C16.0584 9.63913 14.2361 10.8249 12.701 12.3198C9.60085 15.3388 7.8592 19.4334 7.8592 23.703V51.1988C7.8592 53.3128 8.28679 55.4062 9.11755 57.3593C9.94831 59.3124 11.166 61.0871 12.701 62.5819C15.8012 65.6009 20.0059 67.297 24.3902 67.297H52.5259C54.6968 67.297 56.8465 66.8806 58.8521 66.0716C60.8577 65.2626 62.6801 64.0768 64.2151 62.5819C65.7502 61.0871 66.9678 59.3124 67.7986 57.3593C68.6294 55.4062 69.0569 53.3128 69.0569 51.1988V23.703ZM58.6424 20.0969C58.1455 20.0969 57.6596 19.9534 57.2464 19.6846C56.8332 19.4157 56.5112 19.0335 56.321 18.5864C56.1308 18.1393 56.081 17.6473 56.178 17.1726C56.2749 16.698 56.5143 16.262 56.8657 15.9198C57.2171 15.5776 57.6648 15.3445 58.1522 15.2501C58.6396 15.1557 59.1448 15.2041 59.604 15.3893C60.0631 15.5745 60.4556 15.8882 60.7317 16.2906C61.0078 16.693 61.1551 17.1661 61.1551 17.65C61.1551 18.299 60.8904 18.9214 60.4192 19.3803C59.9479 19.8391 59.3088 20.0969 58.6424 20.0969ZM38.4746 55.7063C34.7363 55.7382 31.0727 54.6865 27.9497 52.6852C24.8268 50.6839 22.3857 47.8232 20.9369 44.4671C19.4881 41.111 19.0971 37.4111 19.8135 33.838C20.53 30.2648 22.3215 26.9799 24.9604 24.4011C27.5992 21.8222 30.966 20.066 34.6327 19.3557C38.2993 18.6454 42.1 19.0131 45.5514 20.4121C49.0029 21.8111 51.949 24.1782 54.0152 27.2123C56.0813 30.2463 57.1742 33.8103 57.1546 37.4509C57.1635 42.2929 55.2035 46.9415 51.7031 50.3804C48.2028 53.8193 43.4467 55.7688 38.4746 55.8029V55.7063ZM38.4746 25.8923C36.1453 25.8859 33.8664 26.5528 31.9265 27.8083C29.9866 29.0639 28.4728 30.8518 27.5769 32.9456C26.681 35.0394 26.4432 37.3451 26.8936 39.5706C27.344 41.7961 28.4624 43.8414 30.1071 45.4476C31.7519 47.0538 33.8491 48.1487 36.1331 48.5936C38.4172 49.0384 40.7855 48.8133 42.9381 47.9468C45.0907 47.0802 46.9309 45.6111 48.2257 43.7255C49.5205 41.8399 50.2116 39.6226 50.2116 37.3543C50.1855 34.3367 48.9385 31.4509 46.7411 29.3231C44.5438 27.1954 41.5734 25.9973 38.4746 25.9889V25.8923Z" fill="white"/>
</svg>
