<svg width="64" height="39" viewBox="0 0 64 39" fill="none" xmlns="http://www.w3.org/2000/svg">
<path d="M37.8013 22.4134C37.6454 22.1045 37.4896 21.6411 37.3338 21.1778V20.2511C37.3338 19.3245 37.6454 18.3978 37.9571 17.4711C38.7363 15.7722 41.6971 15 43.7229 16.0811C43.7229 16.6989 43.5671 17.0078 43.4112 17.6256C42.4762 17.1622 41.0737 17.0078 40.2946 17.4711C38.7363 18.3978 38.2688 21.7956 40.4504 22.2589C41.2296 22.4134 42.0087 22.2589 42.7879 21.95C42.6321 22.5678 42.6321 22.8767 42.3204 23.6489C40.7621 24.2667 38.4246 23.6489 37.8013 22.4134ZM61.1761 15.4634C60.5528 18.2434 60.0853 20.8689 59.7736 23.6489H57.7478V22.8767C56.8128 23.8034 55.2545 23.9578 54.3195 23.0311C53.852 22.5678 53.5403 22.1045 53.5403 21.4867C53.2287 19.17 54.6312 16.8534 56.9686 16.8534C57.7478 16.8534 58.0595 17.3167 58.6828 17.78C58.8386 17.0078 58.9945 16.0811 59.1503 15.3089L61.1761 15.4634ZM56.0337 22.2589C58.2153 23.0311 59.1503 18.3978 56.9686 18.5522C55.5662 18.7067 54.6312 21.6411 56.0337 22.2589ZM7.1023 15.6178C7.1023 15.7722 7.25813 20.8689 7.25813 21.0234C7.41396 21.0234 7.41396 21.0234 7.41396 20.8689C8.19312 19.17 8.81645 17.4711 9.59562 15.6178C10.5306 15.4634 11.6214 15.6178 12.5564 15.6178C11.9331 18.2434 11.4656 21.0234 10.9981 23.8034H9.28395C9.75145 21.7956 10.0631 19.3245 10.3748 17.1622C9.90728 17.6256 8.19312 22.1045 7.41396 23.8034H5.85564C5.69981 21.4867 5.54398 19.3245 5.38814 17.1622C4.76481 19.3245 4.45315 21.6411 4.14148 23.8034H2.58316C3.20649 21.1778 3.82982 18.3978 4.14148 15.6178C5.07648 15.4634 6.1673 15.6178 7.1023 15.6178ZM26.1138 17.1622H27.2047C27.0488 17.78 27.0488 18.0889 27.0488 18.7067C26.5813 18.7067 26.1138 18.5522 25.958 18.8611C25.8022 19.4789 25.4905 20.8689 25.4905 21.3322C25.4905 21.7956 25.3347 22.1045 25.6463 22.4134C25.958 22.5678 26.4255 22.5678 26.7372 22.4134C26.5813 23.0311 26.5813 23.34 26.4255 23.9578C24.8672 24.2667 23.4647 24.1123 23.6205 22.4134C23.7764 20.4056 24.7114 17.6256 24.7114 15.7722H26.5813C26.2697 16.2356 26.1138 17.0078 26.1138 17.1622ZM16.4522 19.4789C16.7639 17.9345 14.1148 18.3978 13.0239 18.7067C13.0239 18.2434 13.1798 17.9345 13.3356 17.4711C15.2056 16.8534 18.3222 16.6989 18.1664 19.17C18.0106 20.56 17.3872 22.2589 17.5431 23.9578H15.8289C15.8289 23.6489 15.8289 23.4945 15.9847 23.34C15.6731 23.34 15.3614 23.8034 14.8939 23.9578C13.6473 24.4211 12.0889 23.9578 12.0889 22.5678V21.95C12.2448 20.4056 13.4914 19.7878 15.0497 19.7878C15.2056 19.4789 16.2964 19.4789 16.4522 19.4789ZM15.2056 20.7145C14.2706 20.56 13.3356 21.3322 13.6473 22.1045C13.9589 22.5678 14.8939 22.5678 15.3614 22.2589C15.8289 21.7956 15.9847 21.3322 15.9847 20.7145H15.6731C15.6731 20.56 15.3614 20.56 15.2056 20.7145Z" fill="white"/>
<path d="M26.893 20.0967C26.893 17.78 29.5422 16.0811 31.7238 17.1622C32.8146 17.6256 33.1263 19.3245 32.6588 20.7145H28.6072L28.4513 20.8689C28.6072 21.7956 29.0747 22.2589 30.1655 22.2589H30.633C31.2563 22.2589 31.8796 22.1045 32.3471 21.7956C32.3471 22.2589 32.1913 22.8767 32.1913 23.34C30.0097 24.1122 26.893 23.6489 26.893 21.1778C26.7372 21.0234 26.893 20.56 26.893 20.0967ZM31.1005 19.6334C31.2563 17.9345 28.6072 18.0889 28.763 19.6334H31.1005ZM18.7897 18.8611C18.9456 17.1622 20.9714 16.8534 22.9972 17.1622H23.4647C23.3089 17.6256 23.3089 18.0889 23.153 18.5522H21.283C20.9714 18.5522 20.6597 18.7067 20.6597 19.0156C20.6597 19.7878 22.3739 19.9422 22.8414 20.56C22.9972 20.8689 23.153 21.0234 23.153 21.3322C23.3089 23.0311 22.3739 23.8034 20.6597 23.8034H19.5689C19.1014 23.8034 18.6339 23.8034 18.1664 23.6489C18.1664 23.4945 18.1664 22.5678 18.3222 22.2589C19.1014 22.4134 19.8805 22.5678 20.8155 22.4134C21.1272 22.4134 21.4389 22.1045 21.4389 21.7956C21.4389 21.0234 20.0364 21.0234 19.4131 20.4056C19.2572 20.0967 19.1014 19.9422 18.9456 19.6334L18.7897 18.8611ZM48.8654 23.6489H47.1512V23.0311C46.5279 23.6489 45.1254 24.1122 44.1904 23.6489C43.5671 23.34 43.2554 22.7222 43.2554 22.1045C43.2554 19.9422 45.4371 19.4789 47.6187 19.6334C47.9304 17.9345 45.4371 18.5522 44.3462 18.7067C44.3462 18.2434 44.5021 17.78 44.6579 17.3167C46.5279 16.6989 49.3329 16.6989 49.4887 18.7067C49.4887 19.4789 49.177 20.4056 49.0212 21.1778C48.8654 21.95 48.7095 22.8767 48.8654 23.6489ZM44.9696 21.95C44.9696 22.5678 45.7487 22.7222 46.5279 22.5678C47.1512 22.2589 47.4629 21.6411 47.4629 20.8689C46.372 20.7145 44.8137 20.8689 44.9696 21.95ZM33.9055 17.1622C34.2171 17.1622 35.1521 17.1622 35.6196 17.3167C35.6196 17.6256 35.4638 17.9345 35.6196 18.2434C35.9313 18.0889 36.0871 17.6256 36.3988 17.4711C36.7104 17.3167 37.1779 17.3167 37.6454 17.3167C37.3338 17.9345 37.1779 18.5522 37.0221 19.17C36.0871 19.0156 35.6196 19.4789 35.308 20.4056C35.1521 20.8689 34.6846 23.8034 34.6846 23.9578H32.6588C33.2821 21.4867 33.5938 19.3245 33.9055 17.1622ZM52.2937 17.1622C52.2937 17.4711 52.1378 17.78 52.1378 18.0889C52.7612 17.6256 53.2287 17.0078 54.3195 17.1622C54.1637 17.78 53.852 18.3978 53.6962 19.0156C51.3587 18.8611 51.5145 23.0311 51.3587 23.8034H49.4887C49.9562 21.6411 50.4237 19.4789 50.7353 17.1622H52.2937ZM0.869005 18.0889V18.7067C0.869005 18.3978 0.713173 18.0889 0.869005 18.0889ZM15.2056 20.7145C15.3614 20.56 15.5172 20.56 15.8289 20.7145L15.2056 20.7145Z" fill="white"/>
<path d="M19.2572 38.3211C8.66062 38.3211 0.0898438 29.8267 0.0898438 19.3245C0.0898438 8.82224 8.66062 0.173349 19.4131 0.173349C27.6722 0.173349 34.9963 5.42446 37.6454 13.3011L36.2429 13.7645C33.1263 4.4978 23.153 -0.44443 13.8031 2.64446C4.45315 5.73335 -0.533485 15.6178 2.58316 24.8845C5.69981 34.1511 15.6731 39.0934 25.023 36.0045C30.1655 34.3056 34.2171 30.4445 36.0871 25.3478L37.4896 25.8111C34.5288 33.3789 27.3605 38.3211 19.2572 38.3211Z" fill="white"/>
<path d="M44.3462 38.63C36.0871 38.63 28.763 33.5334 25.958 25.9656L27.3605 25.5023C30.7888 34.7689 41.2296 39.5567 50.5795 36.1589C59.9295 32.7611 64.7603 22.4134 61.3319 13.1467C57.9036 3.88002 47.4629 -0.907763 38.1129 2.49002C32.8146 4.34335 28.763 8.6678 27.0488 14.0734L25.6463 13.61C26.893 9.74891 29.3863 6.35113 32.6588 3.88002C41.3854 -2.60665 53.5403 -0.753319 60.0853 7.89557C66.6302 16.5445 64.7603 28.5911 56.0336 35.0778C52.7612 37.24 48.5537 38.4756 44.3462 38.63Z" fill="white"/>
</svg>
