<svg width="101" height="118" viewBox="0 0 101 118" fill="none" xmlns="http://www.w3.org/2000/svg">
<path d="M50.2101 107.792C77.9404 107.792 100.42 85.9001 100.42 58.8958C100.42 31.8914 77.9404 10 50.2101 10C22.4798 10 0 31.8914 0 58.8958C0 85.9001 22.4798 107.792 50.2101 107.792Z" fill="#FF0000"/>
<path d="M50.2096 98.0122C72.3938 98.0122 90.3777 80.4991 90.3777 58.8956C90.3777 37.2922 72.3938 19.7791 50.2096 19.7791C28.0254 19.7791 10.0415 37.2922 10.0415 58.8956C10.0415 80.4991 28.0254 98.0122 50.2096 98.0122Z" fill="white"/>
<path d="M36.3401 72.0895H31.3804V52.9714L25.4596 54.8077V50.7747L35.8081 47.0678H36.3401V72.0895ZM61.1126 53.7437C61.1126 54.9564 60.8094 56.0319 60.2031 56.97C59.5967 57.9082 58.7615 58.6576 57.6975 59.2182C58.9102 59.8017 59.8713 60.6083 60.5806 61.638C61.29 62.6563 61.6446 63.8576 61.6446 65.242C61.6446 67.4615 60.8895 69.2178 59.3793 70.5106C57.8691 71.792 55.8154 72.4327 53.2183 72.4327C50.6211 72.4327 48.5617 71.7863 47.0401 70.4934C45.5184 69.2006 44.7576 67.4501 44.7576 65.242C44.7576 63.8576 45.1122 62.6506 45.8216 61.6209C46.5309 60.5912 47.4863 59.7903 48.6876 59.2182C47.6236 58.6576 46.7884 57.9082 46.182 56.97C45.587 56.0319 45.2896 54.9564 45.2896 53.7437C45.2896 51.6156 45.9989 49.9223 47.4176 48.6638C48.8363 47.3938 50.7641 46.7589 53.2011 46.7589C55.6266 46.7589 57.5487 47.3881 58.9674 48.6466C60.3976 49.8937 61.1126 51.5927 61.1126 53.7437ZM56.6678 64.8816C56.6678 63.7947 56.3531 62.9251 55.7239 62.273C55.0946 61.6209 54.248 61.2948 53.1839 61.2948C52.1314 61.2948 51.2904 61.6209 50.6612 62.273C50.0319 62.9137 49.7173 63.7832 49.7173 64.8816C49.7173 65.9456 50.0262 66.8037 50.644 67.4558C51.2618 68.108 52.1199 68.434 53.2183 68.434C54.2937 68.434 55.1347 68.1194 55.741 67.4901C56.3589 66.8609 56.6678 65.9914 56.6678 64.8816ZM56.1529 53.9839C56.1529 53.0114 55.8955 52.2334 55.3806 51.6499C54.8658 51.055 54.1393 50.7575 53.2011 50.7575C52.2744 50.7575 51.5536 51.0435 51.0387 51.6156C50.5239 52.1877 50.2665 52.9771 50.2665 53.9839C50.2665 54.9793 50.5239 55.7802 51.0387 56.3865C51.5536 56.9929 52.2801 57.2961 53.2183 57.2961C54.1564 57.2961 54.8772 56.9929 55.3806 56.3865C55.8955 55.7802 56.1529 54.9793 56.1529 53.9839ZM75.571 58.1027H81.7664V62.5819H75.571V69.5839H70.8515V62.5819H64.639V58.1027H70.8515V51.3925H75.571V58.1027Z" fill="black"/>
</svg>
