<svg width="104" height="36" viewBox="0 0 104 36" fill="none" xmlns="http://www.w3.org/2000/svg">
<path d="M69.0168 8.14415V24.5997C69.0168 24.8962 68.8575 25.0444 68.5388 25.0444H64.8737C64.555 25.0444 64.3956 24.8962 64.3956 24.5997V8.14415C64.3956 7.84765 64.555 7.6994 64.8737 7.6994H68.5388C68.8575 7.6994 69.0168 7.84765 69.0168 8.14415ZM97.2221 7.6994H93.2383C93.079 7.6994 92.9196 7.84765 92.7603 7.9959L89.5732 17.7803L86.0675 7.9959C86.0675 7.84765 85.7488 7.6994 85.5894 7.6994H82.7211C82.5617 7.6994 82.4024 7.84765 82.243 7.9959L78.7373 17.7803L75.5503 7.9959C75.5503 7.84765 75.2316 7.6994 75.0722 7.6994H71.0884C70.929 7.6994 70.7697 7.6994 70.7697 7.84765C70.6103 7.9959 70.6103 8.14415 70.7697 8.29239L76.6657 24.7479C76.6657 24.8962 76.9844 25.0444 77.1438 25.0444H80.3308C80.4902 25.0444 80.6495 24.8962 80.8089 24.7479L84.3146 15.1118L87.8204 24.7479C87.8204 24.8962 88.1391 25.0444 88.2984 25.0444H91.4855C91.6448 25.0444 91.8042 24.8962 91.9635 24.7479L97.8595 8.29239V7.84765C97.5408 7.84765 97.3815 7.6994 97.2221 7.6994ZM103.277 7.6994H99.6124C99.2937 7.6994 99.1344 7.84765 99.1344 8.14415V24.5997C99.1344 24.8962 99.2937 25.0444 99.6124 25.0444H103.277C103.596 25.0444 103.756 24.8962 103.756 24.5997V8.14415C103.756 7.84765 103.596 7.6994 103.277 7.6994ZM62.324 24.4514C62.4834 24.5997 62.324 25.0444 62.0053 25.0444H57.5435C57.3841 25.0444 57.2248 24.8962 57.0654 24.8962L56.2687 24.0067C54.6751 24.8962 52.9223 25.4892 51.01 25.4892C45.5921 25.4892 41.2896 21.3382 41.2896 16.446C41.2896 11.5538 45.7514 7.40291 51.01 7.40291C56.428 7.40291 60.7305 11.5538 60.7305 16.446C60.7305 18.225 60.0931 20.004 59.137 21.3382L62.324 24.4514ZM53.5597 20.8935L51.6475 18.6697C51.4881 18.3733 51.6475 18.0768 51.9662 18.0768H55.95C56.1093 17.4838 56.2687 17.039 56.2687 16.446C56.2687 13.7776 54.0377 11.4056 51.1694 11.4056C48.1417 11.4056 46.0701 13.7776 46.0701 16.446C46.0701 19.1145 48.3011 21.4865 51.1694 21.4865C51.9662 21.4865 52.9223 21.19 53.5597 20.8935ZM30.2943 24.4514C30.4536 25.1927 30.1349 25.4892 29.9756 25.4892C29.6569 25.4892 29.3382 25.1927 29.0195 24.5997C28.7008 24.0067 28.5414 23.4137 28.7008 23.1172C28.8601 22.9689 29.0195 22.8207 29.3382 22.9689C29.9756 23.1172 30.1349 24.0067 30.2943 24.4514ZM26.7885 25.9339C27.5853 26.5269 27.7447 27.2681 27.426 27.7129C27.2666 28.0094 26.7885 28.1576 26.4698 28.1576C25.9918 28.1576 25.6731 28.0094 25.3544 27.7129C24.717 27.1199 24.3983 26.2304 24.8763 25.7856C25.0357 25.6374 25.3544 25.4892 25.6731 25.4892C25.9918 25.4892 26.4698 25.6374 26.7885 25.9339ZM25.5137 31.5673C28.7008 31.5673 32.2065 32.605 36.1903 35.7183C36.509 36.0148 37.1464 35.57 36.8277 35.2735C33.0033 30.8261 29.4975 29.9366 25.9918 29.1953C21.6893 28.3059 19.4584 26.0821 18.0242 23.5619C17.7055 23.1172 17.5461 23.1172 17.5461 23.8584C17.5461 24.5997 17.5461 25.6374 17.7055 26.6751H17.2274C11.0127 26.6751 6.07278 22.0794 6.07278 16.2978C6.07278 10.5161 11.0127 5.92043 17.2274 5.92043C23.4422 5.92043 28.3821 10.5161 28.3821 16.2978V17.4838C27.5853 17.3355 25.9918 17.3355 24.8763 17.4838C24.3983 17.4838 24.5576 17.632 24.8763 17.7803C28.5414 18.3733 31.091 20.4487 31.7285 24.3032C31.7285 24.4514 31.8878 24.4514 31.8878 24.3032C33.322 21.9312 34.2781 19.2627 34.2781 16.2978C33.8 7.6994 26.3105 0.73175 17.0681 0.73175C7.6663 0.73175 0.176758 7.6994 0.176758 16.446C0.176758 25.1927 7.6663 32.1603 17.0681 32.1603C19.4584 32.0121 21.8486 31.5673 25.5137 31.5673Z" fill="white"/>
</svg>
