<?xml version="1.0" encoding="utf-8"?>
<!-- Generator: Adobe Illustrator 24.1.1, SVG Export Plug-In . SVG Version: 6.00 Build 0)  -->
<svg version="1.1" id="Capa_1" xmlns="http://www.w3.org/2000/svg" xmlns:xlink="http://www.w3.org/1999/xlink" width="76px" height="20px" x="0px" y="0px"
	 viewBox="0 0 76 20" style="enable-background:new 0 0 76 20;" xml:space="preserve">
<g>
	<g>
		<rect x="70.4" y="10.4" transform="matrix(0.742 -0.6704 0.6704 0.742 10.7033 51.0065)" width="2.4" height="2.4"/>
	</g>
</g>
<g>
	<g>
		<rect x="66.4" y="12" transform="matrix(0.7432 -0.669 0.669 0.7432 8.3631 49.0119)" width="3.2" height="3.2"/>
	</g>
</g>
<g>
	<g>
		<rect x="74.1" y="9.7" transform="matrix(0.7428 -0.6695 0.6695 0.7428 12.2502 52.8139)" width="1.6" height="1.6"/>
	</g>
</g>
<g>
	<g>
		<rect x="67.2" y="3" transform="matrix(0.7432 -0.669 0.669 0.7432 14.7349 46.8832)" width="2.4" height="2.4"/>
	</g>
</g>
<g>
	<g>
		<rect x="72.5" y="6.1" transform="matrix(0.742 -0.6704 0.6704 0.742 14.2898 50.9546)" width="1.6" height="1.6"/>
	</g>
</g>
<g>
	<g>
		<polygon points="8,5.9 6.8,11.9 6.7,11.9 5.1,5.9 4.1,5.9 2.6,11.9 2.6,11.9 1.3,5.9 0,5.9 1.8,14 3.1,14 4.6,8.3 4.7,8.3 6.2,14 
			7.5,14 9.3,5.9 		"/>
	</g>
</g>
<g>
	<g>
		<rect x="64.7" y="7.9" transform="matrix(0.7432 -0.669 0.669 0.7432 10.6868 46.8235)" width="3.2" height="3.2"/>
	</g>
</g>
<g>
	<g>
		<rect x="63" y="3.8" transform="matrix(0.7432 -0.669 0.669 0.7432 12.9637 44.645)" width="3.2" height="3.2"/>
	</g>
</g>
<g>
	<g>
		<rect x="68.9" y="6.6" transform="matrix(0.7423 -0.67 0.67 0.7423 12.8105 48.9818)" width="2.4" height="2.4"/>
	</g>
</g>
<g>
	<g>
		<rect x="71" y="2.6" transform="matrix(0.7428 -0.6695 0.6695 0.7428 16.2059 48.9524)" width="1.6" height="1.6"/>
	</g>
</g>
<g>
	<g>
		<path d="M52.3,8.3L51,12.5H51l-1.5-4.2h-1.3l2.2,5.7c-0.3,0.8-0.8,1.5-1.5,1.5v0.9c1.3,0,2-0.8,2.6-2.4l2.1-5.7
			C53.6,8.3,52.3,8.3,52.3,8.3z"/>
	</g>
</g>
<g>
	<g>
		<path d="M14.5,10.9c0-1.9-0.9-2.8-2.3-2.8c-1.7,0-2.6,1.3-2.6,3c0,1.8,0.8,3,2.7,3c0.8,0,1.5-0.2,2-0.5v-0.9
			c-0.6,0.4-1.2,0.6-1.8,0.6c-1.2,0-1.7-0.6-1.7-2h3.7V10.9z M10.8,10.6c0.1-1.1,0.7-1.7,1.4-1.7c0.6,0,1.2,0.5,1.3,1.7H10.8z"/>
	</g>
</g>
<g>
	<g>
		<rect x="72" y="14" transform="matrix(0.7429 -0.6694 0.6694 0.7429 8.6397 52.9031)" width="2.4" height="2.4"/>
	</g>
</g>
<g>
	<g>
		<path d="M47.9,10.9c0-1.9-0.9-2.8-2.3-2.8c-1.7,0-2.6,1.3-2.6,3c0,1.8,0.8,3,2.7,3c0.8,0,1.5-0.2,2-0.5v-0.9
			c-0.6,0.4-1.2,0.6-1.8,0.6c-1.2,0-1.7-0.6-1.7-2h3.7C47.9,11.3,47.9,10.9,47.9,10.9z M44.2,10.6c0.1-1.1,0.7-1.7,1.4-1.7
			c0.6,0,1.2,0.5,1.3,1.7H44.2z"/>
	</g>
</g>
<g>
	<g>
		<path d="M70.1,15.5l-2.3,2.1l-3.9-4.4l1.1-1l-2.7-3.1l1.1-1l-2.8-3.1l4.4-3.9l1.4,1.5l2.3-2.1L70,2.2l0.9-0.8
			c-0.2-0.1-0.4-0.2-0.6-0.3c-1.3-0.6-2.8-1-4.4-1c-5.5,0-10,4.5-10,10c0,5.5,4.5,10,10,10c1.8,0,3.5-0.5,4.9-1.3
			c0.5-0.3,0.9-0.6,1.3-0.9L70.1,15.5z"/>
	</g>
</g>
<g>
	<g>
		<path d="M18.3,8.1c-0.6,0-1.2,0.2-1.5,0.4V5.3l-1.2,0.3v8c0.7,0.4,1.6,0.6,2.2,0.6c1.7,0,2.7-1,2.7-3.2
			C20.5,9.1,19.7,8.1,18.3,8.1z M17.8,13.3c-0.3,0-0.7,0-1-0.2V9.4C17.2,9.1,17.5,9,18,9c0.8,0,1.3,0.5,1.3,1.9
			C19.3,12.8,18.6,13.3,17.8,13.3z"/>
	</g>
</g>
<g>
	<g>
		<path d="M40.1,8.1c-1.3,0-2.4,0.5-2.9,0.8v5h1.2V9.5C38.7,9.2,39.3,9,39.7,9c0.6,0,1,0.2,1,1.1V14h1.2V9.8
			C41.9,8.7,41.4,8.1,40.1,8.1z"/>
	</g>
</g>
<g>
	<g>
		<polygon points="28.2,5.9 25.7,12.3 25.7,12.3 23.1,5.9 21.7,5.9 21.7,14 22.8,14 22.8,8.2 22.9,8.2 25.2,14 25.9,14 28.3,8.1 
			28.4,8.1 28.4,14 29.6,14 29.6,5.9 		"/>
	</g>
</g>
<g>
	<g>
		<path d="M33.5,8.1c-1.5,0-2.6,1-2.6,3c0,2,1,3,2.6,3c1.6,0,2.6-1,2.6-3C36.1,9.1,35,8.1,33.5,8.1z M33.5,13.3
			c-0.8,0-1.4-0.6-1.4-2.2c0-1.5,0.7-2.2,1.4-2.2c0.8,0,1.4,0.7,1.4,2.2C34.9,12.7,34.3,13.3,33.5,13.3z"/>
	</g>
</g>
</svg>
