<svg width="150" height="38" viewBox="0 0 150 38" fill="none" xmlns="http://www.w3.org/2000/svg">
<path d="M63.7294 0.787567H138.816C142.445 6.95898 146.073 13.1304 149.859 19.3018L138.974 37.816H63.7294V0.787567ZM145.757 19.3018C142.602 14.0561 139.605 8.96468 136.608 3.87327H67.1998V34.7303H136.608C139.605 29.6389 142.602 24.5475 145.757 19.3018ZM3.94365 20.8446C0.473238 18.8389 0.157746 15.7532 1.41971 12.5132C2.83943 8.8104 5.99435 9.11897 9.30701 9.27325V27.9418H7.41406V20.5361C4.73238 22.8504 4.25914 25.9361 2.52394 27.9418H0C1.41971 25.4732 2.68168 23.1589 3.94365 20.8446ZM7.25632 10.9704C5.8366 10.8161 4.57463 10.9704 3.7859 12.359C3.24385 13.2449 2.95758 14.258 2.95758 15.2904C2.95758 16.3228 3.24385 17.3359 3.7859 18.2218C4.57463 19.3018 5.8366 19.6104 7.25632 19.3018V10.9704ZM27.2901 30.4103V28.0961H21.9267C21.9267 28.8675 21.7689 29.4846 21.7689 30.4103H20.0337V27.1703C22.7154 23.4675 22.3999 19.4561 22.5577 15.5989H28.0788V26.0903C28.3943 26.2446 28.7098 26.2446 29.0253 26.3989V30.256C28.552 30.4103 27.921 30.4103 27.2901 30.4103ZM24.6084 17.1418C24.4506 20.3818 24.1351 23.4675 22.5577 26.2446H26.0281V17.1418H24.6084ZM18.614 27.9418H16.7211V22.0789H13.8816V27.9418H11.9887V15.5989H13.8816V20.3818H16.7211V15.5989H18.614V27.9418ZM47.1661 27.9418H44.7999L41.6449 21.7704V27.9418H39.5942V15.5989H41.4872V21.1532C42.5914 18.8389 43.3801 17.2961 44.3266 15.5989H46.5351C45.4308 17.4504 44.4844 19.3018 43.5379 21.1532C44.6421 23.3132 45.7463 25.6275 47.1661 27.9418ZM37.3858 22.2332H32.3379C31.7069 25.4732 33.2844 26.8618 37.0703 26.3989C37.2281 26.7075 37.2281 27.0161 37.3858 27.3246C36.9126 28.5589 33.4421 28.7132 32.0224 27.6332C29.3408 25.4732 29.3408 17.9132 32.3379 15.9075C33.9154 14.8275 35.4928 15.1361 36.5971 16.8332C37.5435 18.3761 37.5435 20.2275 37.3858 22.2332ZM33.9154 16.6789C32.4957 17.7589 32.4957 19.1475 32.3379 20.5361H35.4928C35.1774 19.1475 35.4928 17.6047 33.9154 16.6789Z" fill="white"/>
<path d="M54.2646 26.2446C54.4224 26.7075 54.4224 27.0161 54.5801 27.3246C53.0027 28.4046 51.5829 28.7132 49.8477 27.7875C47.0083 26.2446 46.3773 20.0732 48.7435 16.8332C50.1632 14.8275 52.3717 14.519 54.2646 16.0618L53.3181 17.4504C52.3717 17.1418 51.4252 15.9075 50.6365 17.1418C49.059 19.6104 49.059 22.2332 50.0055 24.8561C50.7942 26.8618 52.5294 26.5532 54.2646 26.2446ZM78.3998 13.1304H85.4983V23.9304C85.9716 23.9304 86.4448 24.0846 87.0758 24.0846V28.2503H85.4983V25.6275H76.98V28.2503H75.4026V24.0846C75.8758 24.0846 76.1913 24.0846 76.6646 23.9304C78.7152 20.6904 78.242 16.8332 78.3998 13.1304ZM83.6054 14.6732H79.9772C80.135 17.9132 79.8195 20.9989 78.3998 23.9304H83.6054V14.6732ZM96.0673 21.7704H90.073C90.073 22.8504 90.3885 23.6218 91.1772 24.0846C92.4392 24.7018 93.7011 24.3932 94.8053 23.6218C95.1208 23.9304 95.4363 24.2389 95.9096 24.5475C94.1744 26.0903 92.1237 26.3989 90.2307 25.3189C88.0223 23.9304 87.8645 21.7704 88.6532 19.6104C89.442 17.6047 91.1772 16.8332 93.3856 17.2961C95.5941 17.7589 95.9096 19.6104 96.0673 21.7704ZM94.1744 20.3818C93.8589 19.1475 93.3856 18.5304 92.1237 18.5304C90.8617 18.5304 90.3885 19.3018 90.073 20.3818H94.1744ZM99.8532 21.9246V25.6275H98.2758V17.4504H99.6955V20.3818H103.639V17.2961H105.059V25.6275H103.639V21.9246H99.8532ZM129.667 19.9189C128.247 22.0789 126.355 23.4675 125.408 25.6275H124.146V17.4504H125.566V23.1589C127.143 20.9989 128.878 19.6104 129.825 17.6047H131.087V25.7818H129.667V19.9189ZM108.214 25.7818V17.4504H109.633V20.0732C112 20.3818 115.312 19.9189 114.524 23.6218C113.893 26.8618 110.58 25.1646 108.214 25.7818ZM109.791 21.4618V24.3932C111.053 24.2389 112.788 25.0103 112.946 23.0046C112.946 20.8446 111.053 21.6161 109.791 21.4618ZM118.309 25.6275H116.89V17.4504H122.253V18.6847H118.309V25.6275Z" fill="white"/>
</svg>
