<?xml version="1.0" encoding="utf-8"?>
<!-- Generator: Adobe Illustrator 24.1.1, SVG Export Plug-In . SVG Version: 6.00 Build 0)  -->
<svg version="1.1" id="Слой_1" xmlns="http://www.w3.org/2000/svg" xmlns:xlink="http://www.w3.org/1999/xlink" x="0px" y="0px"
	 viewBox="0 0 113.4 16.2" style="enable-background:new 0 0 113.4 16.2;" xml:space="preserve">
<style type="text/css">
	.st0{fill:#f8ff13;}
</style>
<g>
	<path class="st0" d="M9.6,4.5h2.6L13,0l-2.7,0l0,0c-5.5,0-9.2,2.7-10.1,8.1c-0.9,5.4,1.8,8.1,7.4,8.1l0,0h2.6l0.8-4.5H8.3
		c-2.7,0-3.9-0.8-3.4-3.5C5.4,5.3,6.9,4.5,9.6,4.5z"/>
	<polygon class="st0" points="17.8,11.4 19.8,0.2 15.2,0.2 12.5,16 14.5,16 14.5,16 22.8,16 23.6,11.4 	"/>
	<polygon class="st0" points="24.3,15.9 28.9,15.9 31.6,0.2 27.1,0.2 	"/>
	<path class="st0" d="M41.5,4.5h2.6L44.9,0l-2.6,0l0,0C36.7,0,33,2.7,32.1,8.1c-0.9,5.4,1.8,8.1,7.4,8.1l0,0H42l0.8-4.5h-2.6
		c-2.7,0-3.9-0.8-3.4-3.5C37.3,5.3,38.8,4.5,41.5,4.5z"/>
	<path class="st0" d="M88.6,4.8c0.5-3.1-1.8-4.6-6.3-4.6l0,0h-0.9h-2.5h-2.1l-2.8,15.7h2.1h2.5h1.3v0c4.5,0,7.4-1.5,7.9-4.5
		c0.3-1.5-0.2-2.6-1.2-3.4C87.7,7.3,88.3,6.2,88.6,4.8z M81.8,4.2c1.7,0,2.3,0.2,2.1,1.1c-0.1,0.8-0.8,1.1-2.5,1.1h-1.1l0.4-2.2
		H81.8z M80.8,12h-1.5l0.4-2.2h1.5c1.7,0,2.3,0.2,2.1,1.1C83.2,11.8,82.5,12,80.8,12z"/>
	<path class="st0" d="M51.6,0.2h-4.6l-2.8,15.7h4.6l1.1-6H51l2.6,6h3.5h1.3h3.4h7h4.7L70.9,0.2h-1.2h-3.2h-1.2l-7.4,14.3l-2.9-6.7
		l6.2-7.6h-4.8l-4.7,5.7h-1.1 M63.8,11.9l3.4-6.8l1,6.8H63.8z"/>
	<polygon class="st0" points="93.9,11.4 95.9,0.2 91.3,0.2 88.5,15.9 90.6,15.9 93.1,15.9 98.8,15.9 99.6,11.4 	"/>
	<polygon class="st0" points="112.6,4.5 113.4,0.2 105.2,0.2 105.2,0.2 103.1,0.2 100.3,15.9 102.4,15.9 104.9,15.9 110.8,15.9 
		111.6,11.6 105.7,11.6 106,9.9 108.8,9.9 109.5,6 106.7,6 106.9,4.5 	"/>
</g>
</svg>
