<svg width="65" height="38" viewBox="0 0 65 38" fill="none" xmlns="http://www.w3.org/2000/svg">
<path d="M4.26988 37.2855C34.8048 23.1684 64.4876 31.611 64.4876 31.611V24.8293C64.4876 24.8293 36.9352 19.8468 4.26988 36.455V37.2855ZM21.1706 0.747268L16.3418 10.1586C15.3477 12.2347 14.3535 14.1723 13.5014 16.3867C13.3593 14.3107 13.2173 12.3731 12.9333 10.1586L12.5072 5.31454L12.0811 0.747268H0.861328V1.43928H1.14537C6.40022 1.71608 7.67843 4.62253 8.1045 6.14495L7.39438 1.43928L8.1045 6.28336V6.14495L8.24652 6.97537V6.83696L10.0928 20.5388H15.3477L26.2834 0.608866H21.1706V0.747268ZM33.3846 0.608866L29.2659 20.5388H24.7212L28.6978 0.608866H33.3846ZM33.6686 15.9715C34.9468 16.6635 36.7931 17.2171 38.6394 17.2171C40.3437 17.2171 42.048 16.3867 42.048 14.8643C42.048 13.7571 41.1958 13.0651 39.2075 12.0962C36.9352 10.989 34.8048 9.46661 34.8048 6.83696C34.8048 2.8233 38.4974 0.332062 43.1842 0.332062C45.7406 0.332062 47.3028 0.885671 48.155 1.30088L46.1667 4.89933C45.4565 4.48413 44.8884 3.79212 42.7581 3.79212C40.6278 3.79212 39.4916 4.89933 39.4916 6.00655C39.4916 7.11377 40.7698 7.80578 42.6161 8.7746C45.1725 10.0202 46.8768 11.681 46.8768 14.0339C46.8768 18.4627 42.9001 20.8156 38.2134 20.8156C35.2309 20.8156 32.8165 19.7084 31.8223 19.0164L33.6686 15.9715ZM53.4098 15.4179L50.8534 20.5388H46.0246L56.3923 0.608866H62.2152L64.7717 20.5388H59.9429L59.5168 15.4179H53.4098ZM59.3748 12.0962L58.9487 7.80578C58.8067 6.69856 58.6647 5.17614 58.6647 3.93052C58.0966 5.17614 57.5285 6.69856 56.9604 7.80578L54.8301 12.0962H59.3748Z" fill="white"/>
</svg>
