<?xml version="1.0" encoding="utf-8"?>
<!-- Generator: Adobe Illustrator 24.1.1, SVG Export Plug-In . SVG Version: 6.00 Build 0)  -->
<svg version="1.1" id="Layer_1" xmlns="http://www.w3.org/2000/svg" xmlns:xlink="http://www.w3.org/1999/xlink" x="0px" y="0px"
	 viewBox="0 0 150.1 150.1" style="enable-background:new 0 0 150.1 150.1;" xml:space="preserve">
<style type="text/css">
	.st0{fill:#FFFFFF;}
</style>
<g>
	<g>
		<path class="st0" d="M75,84.5c-5.2,0-9.5-4.3-9.5-9.5c0-5.2,4.3-9.5,9.5-9.5c5.2,0,9.5,4.3,9.5,9.5C84.5,80.3,80.3,84.5,75,84.5z
			 M75,68C71.1,68,68,71.1,68,75c0,3.9,3.2,7.1,7.1,7.1c3.9,0,7.1-3.2,7.1-7.1C82.1,71.1,78.9,68,75,68z"/>
	</g>
	<g>
		<path class="st0" d="M75,92.7c-9.8,0-17.7-7.9-17.7-17.7c0-9.7,7.9-17.7,17.7-17.7S92.7,65.3,92.7,75C92.7,84.8,84.8,92.7,75,92.7
			z M75,59.5c-8.6,0-15.5,7-15.5,15.5c0,8.6,7,15.5,15.5,15.5c8.6,0,15.5-7,15.5-15.5C90.6,66.5,83.6,59.5,75,59.5z"/>
	</g>
	<g>
		<path class="st0" d="M75,100.9c-6.9,0-13.4-2.7-18.3-7.6C51.9,88.5,49.2,82,49.2,75c0-6.9,2.7-13.4,7.6-18.3
			c4.9-4.9,11.4-7.6,18.3-7.6s13.4,2.7,18.3,7.6c4.9,4.9,7.6,11.4,7.6,18.3c0,6.9-2.7,13.4-7.6,18.3C88.5,98.2,82,100.9,75,100.9z
			 M75,51.1c-13.2,0-24,10.8-24,24c0,13.2,10.8,24,24,24c13.2,0,24-10.8,24-24C99,61.8,88.3,51.1,75,51.1z"/>
	</g>
	<g>
		<path class="st0" d="M75,109.1c-9.1,0-17.7-3.5-24.1-10c-6.4-6.4-10-15-10-24.1c0-9.1,3.5-17.7,10-24.1c6.4-6.4,15-10,24.1-10
			s17.7,3.5,24.1,10c6.4,6.4,10,15,10,24.1c0,9.1-3.5,17.7-10,24.1C92.7,105.6,84.1,109.1,75,109.1z M75,42.6
			c-17.9,0-32.4,14.5-32.4,32.4c0,17.9,14.5,32.4,32.4,32.4s32.4-14.5,32.4-32.4C107.5,57.2,92.9,42.6,75,42.6z"/>
	</g>
	<g>
		<path class="st0" d="M75,117.3c-5.7,0-11.2-1.1-16.5-3.3c-5-2.1-9.6-5.2-13.4-9.1c-3.9-3.9-6.9-8.4-9.1-13.4
			c-2.2-5.2-3.3-10.7-3.3-16.5c0-5.7,1.1-11.2,3.3-16.5c2.1-5,5.2-9.6,9.1-13.4c3.9-3.9,8.4-6.9,13.4-9.1c5.2-2.2,10.7-3.3,16.5-3.3
			s11.2,1.1,16.5,3.3c5,2.1,9.6,5.2,13.4,9.1c3.9,3.9,6.9,8.4,9.1,13.4c2.2,5.2,3.3,10.7,3.3,16.5c0,5.7-1.1,11.2-3.3,16.5
			c-2.1,5-5.2,9.6-9.1,13.4c-3.9,3.9-8.4,6.9-13.4,9.1C86.3,116.2,80.7,117.3,75,117.3z M75,34.2c-22.5,0-40.9,18.3-40.9,40.9
			s18.3,40.9,40.9,40.9c22.5,0,40.9-18.3,40.9-40.9S97.6,34.2,75,34.2z"/>
	</g>
	<g>
		<path class="st0" d="M75,125.5c-6.8,0-13.4-1.3-19.6-4c-6-2.5-11.4-6.2-16-10.8c-4.6-4.6-8.3-10-10.8-16c-2.6-6.2-4-12.8-4-19.6
			c0-6.8,1.3-13.4,4-19.6c2.5-6,6.2-11.4,10.8-16c4.6-4.6,10-8.3,16-10.8c6.2-2.6,12.8-4,19.6-4c6.8,0,13.4,1.3,19.6,4
			c6,2.5,11.4,6.2,16,10.8c4.6,4.6,8.3,10,10.8,16c2.6,6.2,4,12.8,4,19.6c0,6.8-1.3,13.4-4,19.6c-2.5,6-6.2,11.4-10.8,16
			c-4.6,4.6-10,8.3-16,10.8C88.5,124.2,81.9,125.5,75,125.5z M75,25.7c-27.2,0-49.3,22.1-49.3,49.3c0,27.2,22.1,49.3,49.3,49.3
			c27.2,0,49.3-22.1,49.3-49.3C124.4,47.8,102.2,25.7,75,25.7z"/>
	</g>
	<g>
		<path class="st0" d="M75,133.7c-7.9,0-15.6-1.5-22.8-4.6c-7-3-13.3-7.2-18.6-12.6c-5.4-5.4-9.6-11.7-12.6-18.6
			C17.9,90.6,16.4,83,16.4,75c0-7.9,1.6-15.6,4.6-22.8c3-7,7.2-13.3,12.6-18.6C39,28.2,45.2,24,52.2,21c7.2-3.1,14.9-4.6,22.8-4.6
			c7.9,0,15.6,1.6,22.8,4.6c7,3,13.3,7.2,18.6,12.6c5.4,5.4,9.6,11.7,12.6,18.6c3.1,7.2,4.6,14.9,4.6,22.8c0,7.9-1.6,15.6-4.6,22.8
			c-3,7-7.2,13.3-12.6,18.6c-5.4,5.4-11.7,9.6-18.6,12.6C90.6,132.1,83,133.7,75,133.7z M75,17.3c-31.9,0-57.8,25.9-57.8,57.8
			c0,31.9,25.9,57.8,57.8,57.8c31.9,0,57.8-25.9,57.8-57.8C132.8,43.2,106.9,17.3,75,17.3z"/>
	</g>
	<g>
		<path class="st0" d="M75,141.9c-9,0-17.8-1.8-26-5.3c-8-3.4-15.1-8.2-21.2-14.3c-6.1-6.1-11-13.3-14.3-21.2
			c-3.5-8.2-5.3-17-5.3-26c0-9,1.8-17.8,5.3-26c3.4-8,8.2-15.1,14.3-21.2c6.1-6.1,13.3-11,21.2-14.3c8.2-3.5,17-5.3,26-5.3
			c0,0,0,0,0,0c9,0,17.8,1.8,26,5.3c8,3.4,15.1,8.2,21.2,14.3c6.1,6.1,11,13.3,14.3,21.2c3.5,8.2,5.3,17,5.3,26c0,9-1.8,17.8-5.3,26
			c-3.4,8-8.2,15.1-14.3,21.2c-6.1,6.1-13.3,11-21.2,14.3C92.8,140.1,84.1,141.9,75,141.9z M75,8.8C38.5,8.8,8.8,38.5,8.8,75
			c0,36.5,29.7,66.2,66.2,66.2s66.2-29.7,66.2-66.2C141.3,38.5,111.6,8.8,75,8.8z"/>
	</g>
	<g>
		<path class="st0" d="M75,150.1c-10.1,0-20-2-29.2-5.9c-8.9-3.8-17-9.2-23.9-16.1c-6.9-6.9-12.3-14.9-16.1-23.9C2,95,0,85.2,0,75
			c0-10.1,2-20,5.9-29.2c3.8-8.9,9.2-17,16.1-23.9c6.9-6.9,14.9-12.3,23.9-16.1C55.1,2,64.9,0,75,0c10.1,0,20,2,29.2,5.9
			c8.9,3.8,17,9.2,23.9,16.1c6.9,6.9,12.3,14.9,16.1,23.9c3.9,9.3,5.9,19.1,5.9,29.2c0,10.1-2,20-5.9,29.2
			c-3.8,8.9-9.2,17-16.1,23.9c-6.9,6.9-14.9,12.3-23.9,16.1C95,148.1,85.2,150.1,75,150.1z M75,0.4C33.9,0.4,0.4,33.9,0.4,75
			c0,41.2,33.5,74.7,74.7,74.7c41.2,0,74.7-33.5,74.7-74.7C149.7,33.9,116.2,0.4,75,0.4z"/>
	</g>
</g>
</svg>
